<svg width="321" height="181" viewBox="0 0 321 181" fill="none" xmlns="http://www.w3.org/2000/svg">
<g clip-path="url(#clip0_6_544)">
<mask id="mask0_6_544" style="mask-type:alpha" maskUnits="userSpaceOnUse" x="0" y="19" width="321" height="140">
<rect y="19.2034" width="320.891" height="139.712" fill="url(#paint0_linear_6_544)"/>
</mask>
<g mask="url(#mask0_6_544)">
<path d="M280.673 37.5525L262.535 31.4937L187.84 31.7275L174.909 27.0825L163.969 31.6273L117.219 31.4993L98.6943 23.0052H71.7594L67.5931 31.4965H44.1177L0 101.753L49.1106 157.187H271.887L320.997 101.753L280.67 37.5497L280.673 37.5525ZM270.754 154.674H50.2433L3.13377 101.497L45.512 34.0096H69.1656L73.3291 25.5184H98.146L116.665 34.0096L164.467 34.1404L174.973 29.7737L187.403 34.2406L262.129 34.0068L279.02 39.6482L317.863 101.491L270.754 154.668V154.674Z" fill="url(#paint1_linear_6_544)"/>
</g>
<path d="M317.866 101.497L270.754 154.671H50.2432L3.1337 101.497L45.512 34.0094H69.1655L73.329 25.5181H98.1459L116.667 34.0094L164.467 34.143L174.973 29.7763L187.403 34.2431L262.129 34.0094L279.02 39.6535L317.866 101.497Z" fill="url(#paint2_linear_6_544)"/>
<path d="M317.86 101.497L279.022 39.6535L262.126 34.0121L187.405 34.2403L174.976 29.7735L164.464 34.1401L116.664 34.0121L98.1453 25.5209H73.3312L69.1677 34.0121H45.5169L3.13583 101.497H31.4761L52.8364 117.374H87.4304L92.6097 101.497H115.05L120.207 79.0315H125.325L132.238 76.0202L130.788 91.2661L149.903 101.497H317.86Z" fill="#4A357D"/>
<path d="M18.143 93.2004H42.2864L46.436 85.2408H35.7294L43.305 71.9598L55.7176 67.44L59.639 59.9257L47.8247 64.0363L54.1118 53.0125L50.4075 47.4156H57.3068H66.1626L68.826 42.3087H50.1041L18.143 93.2004Z" fill="white"/>
<path d="M78.5057 33.8144L64.49 62.4135L81.4836 72.4995L88.1519 75.945L78.0604 81.4249L70.9384 99.9854H59.5082L71.7316 71.7286L62.6002 66.2681L45.3367 101.488L55.5757 109.078H81.4112L94.2107 69.8249L76.7189 60.1982L86.1341 38.4343H94.5502L100.278 40.8417L92.1762 44.624L86.6462 59.0432L96.0726 64.1084L104.689 37.6829L96.3231 33.8144H78.5057Z" fill="white"/>
<path d="M110.013 42.3082L95.3962 93.1999H108.441L113.601 70.7347H123.597L136.016 65.3272L138.317 46.6415L128.732 42.3082H110.01H110.013ZM126.776 53.1595L124.772 64.2501H115.092L118.958 47.4124H127.814L134.349 50.0702L126.776 53.1567V53.1595Z" fill="white"/>
<path d="M143.778 42.3082L139.57 86.5567L151.982 93.1999H176.126L172.917 46.6415L162.503 42.3082H143.781H143.778ZM162.678 57.9659L162.99 85.2375H152.283L153.705 47.4124H162.561L169.366 50.0702L162.681 57.9659H162.678Z" fill="white"/>
<path d="M180.055 46.6609L185.107 93.1999H198.151L194.419 70.7347H204.416L209.247 93.1999H222.295L216.442 71.7283L208.763 68.4777L214.697 65.3272L208.421 42.3082H189.699L180.055 46.6609V46.6609ZM203.024 64.2501H193.345L191.514 53.2179L183.96 50.073L190.548 47.4152H199.404L203.024 64.2529V64.2501Z" fill="white"/>
<path d="M213.261 47.4152H221.98L237.54 93.1999H250.587L234.59 52.9452L225.453 47.3539H240.95L238.706 42.3082H211.772L213.261 47.4152Z" fill="white"/>
<path d="M284.586 64.1082L273.579 46.583L260.776 42.3082H242.054L251.383 62.4133L277.998 72.4992L285.268 85.2403H274.558L267.514 71.7283L253.17 66.2679L262.583 86.5567L278.711 93.1999H302.854L288.173 69.8247L261.5 60.1979L257.762 53.0287L247.941 47.4152H263.69L270.322 59.0429L284.586 64.1082Z" fill="white"/>
<path d="M175.412 36.2103C174.046 37.5434 172.498 38.7791 170.798 39.9007C172.657 41.0334 174.424 42.3247 176.075 43.7525C177.475 42.3247 179.016 41.0334 180.675 39.9007C178.777 38.7791 177.013 37.5434 175.412 36.2103Z" fill="#E2D45C"/>
<path d="M32.8549 86.9102L40.6893 73.1729C37.7838 73.504 34.9033 73.8436 32.0478 74.197L21.1631 91.5302H41.2738L43.6811 86.9102H32.8549V86.9102Z" fill="url(#paint3_linear_6_544)"/>
<path d="M89.0262 68.8782C85.9147 69.0813 82.8227 69.2984 79.7502 69.5294L82.2939 71.0379L90.6516 75.3544L92.1934 70.6204L89.0262 68.8782V68.8782ZM79.3967 82.5961L72.0883 101.655H56.9677L69.6197 72.4099L66.575 70.5898C65.0944 70.7178 63.6165 70.8486 62.147 70.985L47.4495 100.973L56.1272 107.407H80.1982L90.2007 76.7321L79.3967 82.5961V82.5961Z" fill="url(#paint4_linear_6_544)"/>
<path d="M128.06 66.9719L123.253 69.0648H112.274L107.114 91.5299H97.6155L104.381 67.971C112.168 67.5619 120.064 67.2279 128.06 66.9719Z" fill="url(#paint5_linear_6_544)"/>
<path d="M174.336 91.5302H152.403L141.337 85.6105L143.149 66.5769C145.862 66.5212 148.584 66.4767 151.317 66.4405L150.549 86.9102H164.679L164.445 66.332C165.695 66.3292 166.947 66.3264 168.202 66.3264C169.672 66.3264 171.139 66.3292 172.6 66.3348L174.336 91.5302V91.5302Z" fill="url(#paint6_linear_6_544)"/>
<path d="M220.11 91.53H210.598L205.766 69.0648H192.449L196.181 91.53H186.604L183.88 66.4236C192.029 66.5238 200.091 66.7047 208.057 66.9608L204.881 68.6473L215.045 72.95L220.11 91.53V91.53Z" fill="url(#paint7_linear_6_544)"/>
<path d="M238.916 68.3522C236.194 68.1936 233.459 68.0433 230.709 67.9041L238.738 91.5298H248.128L238.916 68.3522Z" fill="url(#paint8_linear_6_544)"/>
<path d="M287.762 72.3074C284.971 72.0152 282.16 71.7313 279.327 71.4586L288.144 86.9103H273.546L266.327 73.0644L257.134 69.5633C256.928 69.5466 256.725 69.5327 256.519 69.5187L263.825 85.2627L279.04 91.5303H299.836L287.762 72.3074V72.3074Z" fill="url(#paint9_linear_6_544)"/>
<path fill-rule="evenodd" clip-rule="evenodd" d="M133.027 130.65V127.216L123.54 130.745H123.52V134.268H123.54L133.027 137.797V134.357L128.165 132.498L133.027 130.65V130.65Z" fill="#996DFF"/>
<path fill-rule="evenodd" clip-rule="evenodd" d="M187.983 137.619V134.185L192.842 132.337L187.983 130.489V127.054L197.456 130.58H197.479V134.107H197.456L187.983 137.616V137.619ZM183.914 122.203L178.342 140.087H181.651L187.223 122.203H183.914Z" fill="#996DFF"/>
<path fill-rule="evenodd" clip-rule="evenodd" d="M146.968 126.567C147.909 127.602 148.404 128.966 148.346 130.363V137.981H145.037V131.062C145.076 130.291 144.828 129.534 144.347 128.933C143.887 128.398 143.208 128.103 142.504 128.134C140.433 128.134 139.395 129.57 139.395 132.445V137.983H136.086V125.476H139.395V126.606C140.445 125.585 141.87 125.042 143.333 125.103C144.697 125.045 146.022 125.579 146.965 126.567H146.968Z" fill="white"/>
<path fill-rule="evenodd" clip-rule="evenodd" d="M152.557 120.275V138.159H155.866V120.275H152.557Z" fill="white"/>
<path fill-rule="evenodd" clip-rule="evenodd" d="M174.562 137.505H171.801L169.096 130.138L166.366 137.505H163.611L158.974 124.975H162.508L165.113 132.467L167.799 124.975H170.379L173.065 132.492L175.67 124.975H179.204L174.562 137.505V137.505Z" fill="white"/>
<path d="M13.4901 29.2004C17.2362 20.1526 24.8006 13.0223 35.9664 8.0099C46.6647 3.20627 60.2211 0.534491 76.2546 0.0724968C109.123 -0.87654 148.802 7.53399 187.974 23.7622C190.79 24.9284 193.582 26.1251 196.343 27.3524L192.438 27.3636C190.762 26.6372 189.073 25.9219 187.37 25.2178C107.114 -8.02354 29.7629 -5.96683 14.9457 29.8044C10.6541 40.1631 12.0707 52.2278 18.1991 64.9521C33.2251 96.173 76.6052 131.354 133.625 154.972C139.142 157.256 144.663 159.383 150.176 161.35C183.627 173.295 216.665 179.349 244.696 178.539C260.524 178.082 273.874 175.458 284.383 170.741C295.173 165.898 302.462 159.049 306.05 150.385C309.286 142.567 309.275 133.778 306.439 124.466L307.65 123.099C310.973 133.364 310.928 142.734 307.508 150.989C303.759 160.037 296.197 167.167 285.029 172.179C274.331 176.983 260.777 179.655 244.743 180.117C243.068 180.164 241.376 180.189 239.667 180.189C211.41 180.189 178.589 173.602 145.568 161.35C141.385 159.8 137.202 158.158 133.021 156.427C93.8493 140.202 59.8454 118.095 37.2745 94.1803C28.3992 84.7762 21.6752 75.4973 17.2195 66.5107C16.1452 64.3482 15.2045 62.2052 14.3974 60.0817C10.0474 48.6404 9.74127 38.2511 13.4901 29.2004V29.2004Z" fill="url(#paint10_linear_6_544)"/>
<path d="M13.4901 29.2004C17.2362 20.1526 24.8006 13.0223 35.9664 8.0099C46.6647 3.20627 60.2211 0.534491 76.2546 0.0724968C109.123 -0.87654 148.802 7.53399 187.974 23.7622C190.79 24.9284 193.582 26.1251 196.343 27.3524L192.438 27.3636C190.762 26.6372 189.073 25.9219 187.37 25.2178C107.114 -8.02354 29.7629 -5.96683 14.9457 29.8044C10.6541 40.1631 12.0707 52.2278 18.1991 64.9521C33.2251 96.173 76.6052 131.354 133.625 154.972C139.142 157.256 144.663 159.383 150.176 161.35C183.627 173.295 216.665 179.349 244.696 178.539C260.524 178.082 273.874 175.458 284.383 170.741C295.173 165.898 302.462 159.049 306.05 150.385C309.286 142.567 309.275 133.778 306.439 124.466L307.65 123.099C310.973 133.364 310.928 142.734 307.508 150.989C303.759 160.037 296.197 167.167 285.029 172.179C274.331 176.983 260.777 179.655 244.743 180.117C243.068 180.164 241.376 180.189 239.667 180.189C211.41 180.189 178.589 173.602 145.568 161.35C141.385 159.8 137.202 158.158 133.021 156.427C93.8493 140.202 59.8454 118.095 37.2745 94.1803C28.3992 84.7762 21.6752 75.4973 17.2195 66.5107C16.1452 64.3482 15.2045 62.2052 14.3974 60.0817C10.0474 48.6404 9.74127 38.2511 13.4901 29.2004V29.2004Z" fill="url(#paint11_radial_6_544)"/>
<path d="M13.4901 29.2004C17.2362 20.1526 24.8006 13.0223 35.9664 8.0099C46.6647 3.20627 60.2211 0.534491 76.2546 0.0724968C109.123 -0.87654 148.802 7.53399 187.974 23.7622C190.79 24.9284 193.582 26.1251 196.343 27.3524L192.438 27.3636C190.762 26.6372 189.073 25.9219 187.37 25.2178C107.114 -8.02354 29.7629 -5.96683 14.9457 29.8044C10.6541 40.1631 12.0707 52.2278 18.1991 64.9521C33.2251 96.173 76.6052 131.354 133.625 154.972C139.142 157.256 144.663 159.383 150.176 161.35C183.627 173.295 216.665 179.349 244.696 178.539C260.524 178.082 273.874 175.458 284.383 170.741C295.173 165.898 302.462 159.049 306.05 150.385C309.286 142.567 309.275 133.778 306.439 124.466L307.65 123.099C310.973 133.364 310.928 142.734 307.508 150.989C303.759 160.037 296.197 167.167 285.029 172.179C274.331 176.983 260.777 179.655 244.743 180.117C243.068 180.164 241.376 180.189 239.667 180.189C211.41 180.189 178.589 173.602 145.568 161.35C141.385 159.8 137.202 158.158 133.021 156.427C93.8493 140.202 59.8454 118.095 37.2745 94.1803C28.3992 84.7762 21.6752 75.4973 17.2195 66.5107C16.1452 64.3482 15.2045 62.2052 14.3974 60.0817C10.0474 48.6404 9.74127 38.2511 13.4901 29.2004V29.2004Z" fill="url(#paint12_radial_6_544)"/>
<path d="M13.4901 29.2004C17.2362 20.1526 24.8006 13.0223 35.9664 8.0099C46.6647 3.20627 60.2211 0.534491 76.2546 0.0724968C109.123 -0.87654 148.802 7.53399 187.974 23.7622C190.79 24.9284 193.582 26.1251 196.343 27.3524L192.438 27.3636C190.762 26.6372 189.073 25.9219 187.37 25.2178C107.114 -8.02354 29.7629 -5.96683 14.9457 29.8044C10.6541 40.1631 12.0707 52.2278 18.1991 64.9521C33.2251 96.173 76.6052 131.354 133.625 154.972C139.142 157.256 144.663 159.383 150.176 161.35C183.627 173.295 216.665 179.349 244.696 178.539C260.524 178.082 273.874 175.458 284.383 170.741C295.173 165.898 302.462 159.049 306.05 150.385C309.286 142.567 309.275 133.778 306.439 124.466L307.65 123.099C310.973 133.364 310.928 142.734 307.508 150.989C303.759 160.037 296.197 167.167 285.029 172.179C274.331 176.983 260.777 179.655 244.743 180.117C243.068 180.164 241.376 180.189 239.667 180.189C211.41 180.189 178.589 173.602 145.568 161.35C141.385 159.8 137.202 158.158 133.021 156.427C93.8493 140.202 59.8454 118.095 37.2745 94.1803C28.3992 84.7762 21.6752 75.4973 17.2195 66.5107C16.1452 64.3482 15.2045 62.2052 14.3974 60.0817C10.0474 48.6404 9.74127 38.2511 13.4901 29.2004V29.2004Z" fill="url(#paint13_radial_6_544)"/>
<path d="M307.508 29.2004C303.762 20.1526 296.197 13.0223 285.031 8.0099C274.333 3.20627 260.777 0.534491 244.743 0.0724968C211.875 -0.87654 172.196 7.53399 133.024 23.7622C130.208 24.9284 127.416 26.1251 124.655 27.3524L128.56 27.3636C130.235 26.6372 131.925 25.9219 133.628 25.2178C213.884 -8.02354 291.235 -5.96683 306.052 29.8044C310.344 40.1631 308.927 52.2278 302.799 64.9521C287.773 96.173 244.393 131.354 187.372 154.972C181.856 157.256 176.335 159.383 170.821 161.35C137.371 173.295 104.333 179.349 76.3017 178.539C60.4742 178.082 47.1237 175.458 36.6147 170.741C25.8246 165.898 18.5357 159.049 14.9482 150.385C11.7115 142.567 11.7226 133.778 14.5586 124.466L13.348 123.099C10.0249 133.364 10.0695 142.734 13.4899 150.989C17.2387 160.037 24.8004 167.167 35.969 172.179C46.6672 176.983 60.2209 179.655 76.2544 180.117C77.9298 180.164 79.6219 180.189 81.3307 180.189C109.588 180.189 142.409 173.602 175.43 161.35C179.613 159.8 183.796 158.158 187.976 156.427C227.148 140.202 261.152 118.095 283.723 94.1803C292.599 84.7762 299.323 75.4973 303.778 66.5107C304.853 64.3482 305.793 62.2052 306.6 60.0817C310.95 48.6404 311.257 38.2511 307.508 29.2004V29.2004Z" fill="url(#paint14_linear_6_544)"/>
<path d="M307.508 29.2004C303.762 20.1526 296.197 13.0223 285.031 8.0099C274.333 3.20627 260.777 0.534491 244.743 0.0724968C211.875 -0.87654 172.196 7.53399 133.024 23.7622C130.208 24.9284 127.416 26.1251 124.655 27.3524L128.56 27.3636C130.235 26.6372 131.925 25.9219 133.628 25.2178C213.884 -8.02354 291.235 -5.96683 306.052 29.8044C310.344 40.1631 308.927 52.2278 302.799 64.9521C287.773 96.173 244.393 131.354 187.372 154.972C181.856 157.256 176.335 159.383 170.821 161.35C137.371 173.295 104.333 179.349 76.3017 178.539C60.4742 178.082 47.1237 175.458 36.6147 170.741C25.8246 165.898 18.5357 159.049 14.9482 150.385C11.7115 142.567 11.7226 133.778 14.5586 124.466L13.348 123.099C10.0249 133.364 10.0695 142.734 13.4899 150.989C17.2387 160.037 24.8004 167.167 35.969 172.179C46.6672 176.983 60.2209 179.655 76.2544 180.117C77.9298 180.164 79.6219 180.189 81.3307 180.189C109.588 180.189 142.409 173.602 175.43 161.35C179.613 159.8 183.796 158.158 187.976 156.427C227.148 140.202 261.152 118.095 283.723 94.1803C292.599 84.7762 299.323 75.4973 303.778 66.5107C304.853 64.3482 305.793 62.2052 306.6 60.0817C310.95 48.6404 311.257 38.2511 307.508 29.2004V29.2004Z" fill="url(#paint15_radial_6_544)"/>
<path d="M307.508 29.2004C303.762 20.1526 296.197 13.0223 285.031 8.0099C274.333 3.20627 260.777 0.534491 244.743 0.0724968C211.875 -0.87654 172.196 7.53399 133.024 23.7622C130.208 24.9284 127.416 26.1251 124.655 27.3524L128.56 27.3636C130.235 26.6372 131.925 25.9219 133.628 25.2178C213.884 -8.02354 291.235 -5.96683 306.052 29.8044C310.344 40.1631 308.927 52.2278 302.799 64.9521C287.773 96.173 244.393 131.354 187.372 154.972C181.856 157.256 176.335 159.383 170.821 161.35C137.371 173.295 104.333 179.349 76.3017 178.539C60.4742 178.082 47.1237 175.458 36.6147 170.741C25.8246 165.898 18.5357 159.049 14.9482 150.385C11.7115 142.567 11.7226 133.778 14.5586 124.466L13.348 123.099C10.0249 133.364 10.0695 142.734 13.4899 150.989C17.2387 160.037 24.8004 167.167 35.969 172.179C46.6672 176.983 60.2209 179.655 76.2544 180.117C77.9298 180.164 79.6219 180.189 81.3307 180.189C109.588 180.189 142.409 173.602 175.43 161.35C179.613 159.8 183.796 158.158 187.976 156.427C227.148 140.202 261.152 118.095 283.723 94.1803C292.599 84.7762 299.323 75.4973 303.778 66.5107C304.853 64.3482 305.793 62.2052 306.6 60.0817C310.95 48.6404 311.257 38.2511 307.508 29.2004V29.2004Z" fill="url(#paint16_radial_6_544)"/>
</g>
<defs>
<linearGradient id="paint0_linear_6_544" x1="160.446" y1="84.1888" x2="160.446" y2="152.653" gradientUnits="userSpaceOnUse">
<stop stop-color="#D9D9D9"/>
<stop offset="1" stop-color="#D9D9D9" stop-opacity="0"/>
</linearGradient>
<linearGradient id="paint1_linear_6_544" x1="0" y1="90.0947" x2="321" y2="90.0947" gradientUnits="userSpaceOnUse">
<stop stop-color="#996DFF"/>
<stop offset="0.5" stop-color="#35E8B3"/>
<stop offset="1" stop-color="#E2D45C"/>
</linearGradient>
<linearGradient id="paint2_linear_6_544" x1="160.499" y1="103.509" x2="160.499" y2="153.349" gradientUnits="userSpaceOnUse">
<stop stop-color="#28203E"/>
<stop offset="1" stop-color="#121214" stop-opacity="0"/>
</linearGradient>
<linearGradient id="paint3_linear_6_544" x1="32.4235" y1="68.7143" x2="32.4235" y2="88.3547" gradientUnits="userSpaceOnUse">
<stop stop-color="#A9A9AD"/>
<stop offset="1" stop-color="#A9A9AD" stop-opacity="0"/>
</linearGradient>
<linearGradient id="paint4_linear_6_544" x1="69.8228" y1="68.714" x2="69.8228" y2="88.3543" gradientUnits="userSpaceOnUse">
<stop stop-color="#A9A9AD"/>
<stop offset="1" stop-color="#A9A9AD" stop-opacity="0"/>
</linearGradient>
<linearGradient id="paint5_linear_6_544" x1="112.839" y1="68.7141" x2="112.839" y2="88.3544" gradientUnits="userSpaceOnUse">
<stop stop-color="#A9A9AD"/>
<stop offset="1" stop-color="#A9A9AD" stop-opacity="0"/>
</linearGradient>
<linearGradient id="paint6_linear_6_544" x1="157.838" y1="68.7143" x2="157.838" y2="88.3547" gradientUnits="userSpaceOnUse">
<stop stop-color="#A9A9AD"/>
<stop offset="1" stop-color="#A9A9AD" stop-opacity="0"/>
</linearGradient>
<linearGradient id="paint7_linear_6_544" x1="201.995" y1="68.7141" x2="201.995" y2="88.3545" gradientUnits="userSpaceOnUse">
<stop stop-color="#A9A9AD"/>
<stop offset="1" stop-color="#A9A9AD" stop-opacity="0"/>
</linearGradient>
<linearGradient id="paint8_linear_6_544" x1="239.42" y1="68.714" x2="239.42" y2="88.3543" gradientUnits="userSpaceOnUse">
<stop stop-color="#A9A9AD"/>
<stop offset="1" stop-color="#A9A9AD" stop-opacity="0"/>
</linearGradient>
<linearGradient id="paint9_linear_6_544" x1="278.177" y1="68.7144" x2="278.177" y2="88.3548" gradientUnits="userSpaceOnUse">
<stop stop-color="#A9A9AD"/>
<stop offset="1" stop-color="#A9A9AD" stop-opacity="0"/>
</linearGradient>
<linearGradient id="paint10_linear_6_544" x1="291.252" y1="128.997" x2="74.4483" y2="130.11" gradientUnits="userSpaceOnUse">
<stop stop-color="#996DFF"/>
<stop offset="0.5" stop-color="#35E8B3"/>
<stop offset="1" stop-color="#E2D45C"/>
</linearGradient>
<radialGradient id="paint11_radial_6_544" cx="0" cy="0" r="1" gradientUnits="userSpaceOnUse" gradientTransform="translate(158.519 164.662) rotate(15.7611) scale(145.74 242.013)">
<stop stop-color="#171226"/>
<stop offset="1" stop-color="#171226" stop-opacity="0"/>
</radialGradient>
<radialGradient id="paint12_radial_6_544" cx="0" cy="0" r="1" gradientUnits="userSpaceOnUse" gradientTransform="translate(195.888 28.1547) rotate(-157.036) scale(32.8016 54.4697)">
<stop stop-color="#261945"/>
<stop offset="1" stop-color="#261945" stop-opacity="0"/>
</radialGradient>
<radialGradient id="paint13_radial_6_544" cx="0" cy="0" r="1" gradientUnits="userSpaceOnUse" gradientTransform="translate(307.994 120.809) rotate(76.7293) scale(37.1668 61.7185)">
<stop stop-color="#191326"/>
<stop offset="1" stop-color="#191326" stop-opacity="0"/>
</radialGradient>
<linearGradient id="paint14_linear_6_544" x1="168.757" y1="19.9642" x2="217.217" y2="142.82" gradientUnits="userSpaceOnUse">
<stop stop-color="#996DFF"/>
<stop offset="0.5" stop-color="#35E8B3"/>
<stop offset="1" stop-color="#E2D45C"/>
</linearGradient>
<radialGradient id="paint15_radial_6_544" cx="0" cy="0" r="1" gradientUnits="userSpaceOnUse" gradientTransform="translate(121.662 30.8848) rotate(-19.3523) scale(74.1493 123.131)">
<stop stop-color="#171225"/>
<stop offset="1" stop-color="#171225" stop-opacity="0"/>
</radialGradient>
<radialGradient id="paint16_radial_6_544" cx="0" cy="0" r="1" gradientUnits="userSpaceOnUse" gradientTransform="translate(13.4801 122.515) rotate(67.4706) scale(49.8776 82.8257)">
<stop stop-color="#191327"/>
<stop offset="1" stop-color="#191327" stop-opacity="0"/>
</radialGradient>
<clipPath id="clip0_6_544">
<rect width="321" height="180.189" fill="white"/>
</clipPath>
</defs>
</svg>
